<svg width="89" height="21" viewBox="0 0 89 21" fill="none" xmlns="http://www.w3.org/2000/svg">
<path d="M13.7136 17.6878L12.3372 21H0L9.73635 0H32.991L35.3381 4.63785L37.531 0H45.7918H49.9556H68.8829L71.5627 2.88299L74.4408 0H89L78.6631 10.4757L88.554 21H74.4641L71.312 17.9068L68.1859 21H49.9556H45.7918H17.8922L16.3788 17.6878H13.7136ZM16.3875 17.9098H13.7048H16.3875ZM46.1883 2.99997H40.0648L35.4577 13.0499L30.5005 2.99997H24.377V17.55L18.0495 2.99997H12.305L5.54024 18H9.68081L11.0514 14.5799H18.9243L20.4991 18H28.1095V5.78986L33.504 18H37.0615L42.4269 5.99993V18H46.1885V2.99997H46.1883ZM71.4694 7.85995L67.0955 2.99997H49.5415V18H66.5122L71.3235 13.08L76.1639 18H80.6837L73.7728 10.41L80.8877 3.00009H76.1639L71.4694 7.85995ZM62.2258 14.9999H53.3032V11.7H62.2258V8.69995H53.3032V5.99993H62.2258V3.44988L68.8449 10.2598L62.2258 17.0998V14.9999ZM15.0754 5.45974L17.6415 11.5498H12.305L15.0754 5.45974Z" fill="#009CDE"/>
</svg>
