<svg width="19" height="30" viewBox="0 0 19 30" fill="none" xmlns="http://www.w3.org/2000/svg">
<path d="M17.3727 10.6005L17.373 10.6012C17.566 11.0166 17.5033 11.5088 17.2054 11.8626C17.2054 11.8626 17.2054 11.8626 17.2054 11.8626L3.33869 28.3293L3.33777 28.3304C3.1054 28.6053 2.77043 28.75 2.43305 28.75C2.22078 28.75 2.00687 28.6929 1.81605 28.5762L1.8153 28.5757C1.31728 28.2704 1.11634 27.6468 1.34242 27.1083L1.34274 27.1075L5.75991 16.6167H2.43351C2.02151 16.6167 1.64244 16.4027 1.42748 16.0563L1.42645 16.0547C1.21204 15.7072 1.19074 15.2717 1.37507 14.9038L1.37487 14.9043L2.04569 15.2397L1.37533 14.9033L7.87489 1.90423L7.87521 1.90358C8.07576 1.50345 8.48491 1.25 8.93352 1.25H15.8669C16.2975 1.25 16.6951 1.48419 16.9035 1.86271L17.3727 10.6005ZM17.3727 10.6005C17.1789 10.1845 16.7613 9.9167 16.3002 9.9167H12.528L16.8666 3.06649L16.8667 3.06641M17.3727 10.6005L16.8667 3.06641M16.8667 3.06641C17.0972 2.70229 17.1118 2.24109 16.9037 1.86307L16.8667 3.06641ZM6.0757 15.8667H6.88947L6.57368 16.6167L6.0757 15.8667Z" stroke="#00BDAA" stroke-width="1.5" stroke-linejoin="round"/>
</svg>
